{
	"asset":{
		"generator":"Khronos glTF Blender I/O v3.6.6",
		"version":"2.0"
	},
	"extensionsUsed":[
		"KHR_materials_specular",
		"KHR_materials_ior"
	],
	"scene":0,
	"scenes":[
		{
			"name":"Scene",
			"nodes":[
				0
			]
		}
	],
	"nodes":[
		{
			"mesh":0,
			"name":"Car_12",
			"rotation":[
				0.7071068286895752,
				0,
				0,
				0.7071068286895752
			],
			"translation":[
				0.00012512206740211695,
				0,
				-0.00023678051366005093
			]
		}
	],
	"materials":[
		{
			"alphaMode":"BLEND",
			"doubleSided":true,
			"extensions":{
				"KHR_materials_specular":{
					"specularColorFactor":[
						1,
						1,
						1
					]
				},
				"KHR_materials_ior":{
					"ior":1
				}
			},
			"name":"CAR_12",
			"pbrMetallicRoughness":{
				"baseColorFactor":[
					0.07750587165355682,
					0.08897138386964798,
					1,
					1
				]
			}
		},
		{
			"doubleSided":true,
			"name":"Material.001",
			"pbrMetallicRoughness":{
				"baseColorFactor":[
					0.800000011920929,
					0.800000011920929,
					0.800000011920929,
					1
				],
				"metallicFactor":0,
				"roughnessFactor":0.5
			}
		}
	],
	"meshes":[
		{
			"name":"Car_12",
			"primitives":[
				{
					"attributes":{
						"POSITION":0,
						"TEXCOORD_0":1,
						"NORMAL":2
					},
					"indices":3,
					"material":0
				},
				{
					"attributes":{
						"POSITION":4,
						"TEXCOORD_0":5,
						"NORMAL":6
					},
					"indices":7,
					"material":1
				}
			]
		}
	],
	"accessors":[
		{
			"bufferView":0,
			"componentType":5126,
			"count":526,
			"max":[
				85.34152221679688,
				28.17247772216797,
				9.046924591064453
			],
			"min":[
				-95.23017883300781,
				-28.17247772216797,
				-40.30013656616211
			],
			"type":"VEC3"
		},
		{
			"bufferView":1,
			"componentType":5126,
			"count":526,
			"type":"VEC2"
		},
		{
			"bufferView":2,
			"componentType":5126,
			"count":526,
			"type":"VEC3"
		},
		{
			"bufferView":3,
			"componentType":5123,
			"count":1068,
			"type":"SCALAR"
		},
		{
			"bufferView":4,
			"componentType":5126,
			"count":16,
			"max":[
				83.94525146484375,
				25.92699432373047,
				-13.164388656616211
			],
			"min":[
				-90.26178741455078,
				-25.92699432373047,
				-35.987632751464844
			],
			"type":"VEC3"
		},
		{
			"bufferView":5,
			"componentType":5126,
			"count":16,
			"type":"VEC2"
		},
		{
			"bufferView":6,
			"componentType":5126,
			"count":16,
			"type":"VEC3"
		},
		{
			"bufferView":7,
			"componentType":5123,
			"count":24,
			"type":"SCALAR"
		}
	],
	"bufferViews":[
		{
			"buffer":0,
			"byteLength":6312,
			"byteOffset":0,
			"target":34962
		},
		{
			"buffer":0,
			"byteLength":4208,
			"byteOffset":6312,
			"target":34962
		},
		{
			"buffer":0,
			"byteLength":6312,
			"byteOffset":10520,
			"target":34962
		},
		{
			"buffer":0,
			"byteLength":2136,
			"byteOffset":16832,
			"target":34963
		},
		{
			"buffer":0,
			"byteLength":192,
			"byteOffset":18968,
			"target":34962
		},
		{
			"buffer":0,
			"byteLength":128,
			"byteOffset":19160,
			"target":34962
		},
		{
			"buffer":0,
			"byteLength":192,
			"byteOffset":19288,
			"target":34962
		},
		{
			"buffer":0,
			"byteLength":48,
			"byteOffset":19480,
			"target":34963
		}
	],
	"buffers":[
		{
			"byteLength":19528,
			"uri":"data:application/octet-stream;base64,"
		}
	]
}
